# xmcd
#
# Track frame offsets: 
#        151
#        18864
#        36645
#        55118
#        72535
#        91246
#        110257
#        125310
#        141095
#        161606
#
# Disc length: 2384 seconds
#
# Revision: 0
# Processed by: cddbd v1.5.1PL2 Copyright (c) Steve Scherf et al.
# Submitted via: ExactAudioCopy v0.95b4
#
DISCID=84094e0a
DTITLE=ณัฐกับหนุ่ม - โครงการพันล้าน
DYEAR=2006
DGENRE=Country
TTITLE0=โครงการพันล้าน
TTITLE1=ขออ้ายก่อน
TTITLE2=แรงใจคลายเหงา
TTITLE3=สนูว่าวข่าวร้าย
TTITLE4=บักแพ่แว้
TTITLE5=คนที่เธอมองข้าม
TTITLE6=ปิดประตูตี
TTITLE7=นัองพักกับใคร
TTITLE8=หัวใจไร้กลิ่น
TTITLE9=พบรักที่นางรอง
EXTD=
EXTT0=
EXTT1=
EXTT2=
EXTT3=
EXTT4=
EXTT5=
EXTT6=
EXTT7=
EXTT8=
EXTT9=
PLAYORDER=
